<svg viewBox="0 0 250 43" xmlns="http://www.w3.org/2000/svg" data-logo="logo">
        <g transform="translate(0, 1) rotate(0)" id="logogram"><path fill="#6300C7" d="M0.290833 20.9C0.290833 9.85432 9.24513 0.900024 20.2908 0.900024H46.5408C57.5866 0.900024 66.5408 9.85432 66.5408 20.9V40.9H20.2908C9.24513 40.9 0.290833 31.9458 0.290833 20.9Z"></path><path fill="#A5B4FC" d="M46.5408 8.40002H20.2908C13.3873 8.40002 7.79083 13.9965 7.79083 20.9C7.79083 27.8036 13.3873 33.4 20.2908 33.4H46.5408C53.4444 33.4 59.0408 27.8036 59.0408 20.9C59.0408 13.9965 53.4444 8.40002 46.5408 8.40002Z"></path><path fill="black" d="M20.2908 27.15C23.7426 27.15 26.5408 24.3518 26.5408 20.9C26.5408 17.4482 23.7426 14.65 20.2908 14.65C16.8391 14.65 14.0408 17.4482 14.0408 20.9C14.0408 24.3518 16.8391 27.15 20.2908 27.15Z"></path><path fill="white" d="M17.7908 19.65C18.4812 19.65 19.0408 19.0904 19.0408 18.4C19.0408 17.7097 18.4812 17.15 17.7908 17.15C17.1005 17.15 16.5408 17.7097 16.5408 18.4C16.5408 19.0904 17.1005 19.65 17.7908 19.65Z"></path><path fill="black" d="M47.7908 27.15C51.2426 27.15 54.0408 24.3518 54.0408 20.9C54.0408 17.4482 51.2426 14.65 47.7908 14.65C44.3391 14.65 41.5408 17.4482 41.5408 20.9C41.5408 24.3518 44.3391 27.15 47.7908 27.15Z"></path><path fill="white" d="M45.2908 19.65C45.9812 19.65 46.5408 19.0904 46.5408 18.4C46.5408 17.7097 45.9812 17.15 45.2908 17.15C44.6005 17.15 44.0408 17.7097 44.0408 18.4C44.0408 19.0904 44.6005 19.65 45.2908 19.65Z"></path></g>
        <g transform="translate(73, 9)" id="logotype"><path d="M15.70 0.01L15.70 0.01Q16.40 0.01 17.43 0.08Q18.46 0.15 19.56 0.27Q20.66 0.39 21.49 0.52Q22.31 0.64 22.63 0.78L22.63 0.78L22.21 5.50L21.86 5.50Q21.86 3.68 20.51 2.58Q19.16 1.48 16.92 1.48L16.92 1.48Q14.89 1.48 13.65 2.46Q12.41 3.44 12.34 4.84L12.34 4.84Q12.30 5.89 13 6.66Q13.70 7.43 14.79 8.09L14.79 8.09L21.47 12.43Q23.08 13.34 23.90 14.81Q24.73 16.28 24.62 18.24L24.62 18.24Q24.45 21.68 22.00 23.58Q19.55 25.49 15.35 25.49L15.35 25.49Q13.80 25.49 12.35 25.23Q10.90 24.96 9.78 24.49Q8.66 24.02 8.00 23.36L8.00 23.36Q7.71 22.59 7.75 21.50Q7.79 20.41 8.08 19.29Q8.38 18.17 8.84 17.44L8.84 17.44L9.15 17.44Q9.01 19.23 9.80 20.75Q10.59 22.27 12.11 23.16Q13.63 24.05 15.73 24.02L15.73 24.02Q18.04 23.98 19.30 22.85Q20.56 21.71 20.56 20.10L20.56 20.10Q20.56 19.02 19.91 18.14Q19.27 17.27 17.80 16.46L17.80 16.46L11.67 12.40Q9.82 11.35 8.97 9.70Q8.13 8.06 8.35 6.13L8.35 6.13Q8.48 4.31 9.39 2.93Q10.30 1.55 11.90 0.78Q13.49 0.01 15.70 0.01ZM18.46 0.36L22.66 0.36L22.59 1.09L18.46 1.09L18.46 0.36ZM47.62 16.21L47.90 16.21L48.28 21.50Q47.62 22.62 46.43 23.51Q45.23 24.41 43.52 24.93Q41.81 25.45 39.53 25.45L39.53 25.45Q35.61 25.42 32.78 24.13Q29.94 22.83 28.42 20.40Q26.90 17.96 26.90 14.46L26.90 14.46Q26.90 11.03 28.40 8.60Q29.91 6.17 32.74 4.86Q35.58 3.54 39.53 3.54L39.53 3.54Q41.91 3.54 43.96 4.00Q46.01 4.45 47.37 5.15L47.37 5.15L47.41 10.72L47.13 10.72Q46.25 7.50 44.36 6.20Q42.47 4.91 39.84 4.91L39.84 4.91Q37.33 4.91 35.63 6.10Q33.93 7.29 33.07 9.42Q32.22 11.56 32.22 14.43L32.22 14.43Q32.22 17.34 33.07 19.47Q33.93 21.61 35.58 22.80Q37.22 23.98 39.53 24.05L39.53 24.05Q42.02 24.05 43.64 23.29Q45.27 22.52 46.23 20.80Q47.20 19.09 47.62 16.21L47.62 16.21ZM57.52 4.00L57.52 4.00L61.27 4.00Q62.73 4.00 64.10 4.30Q65.47 4.59 66.55 5.24Q67.64 5.89 68.28 6.99Q68.93 8.09 68.93 9.74L68.93 9.74Q68.93 10.96 68.42 12.17Q67.92 13.38 66.85 14.25Q65.78 15.13 64.06 15.41L64.06 15.41Q65.08 15.72 66.01 16.63Q66.94 17.54 67.43 18.35L67.43 18.35Q67.60 18.63 67.95 19.24Q68.30 19.86 68.84 20.64Q69.39 21.43 69.98 22.27L69.98 22.27Q70.68 23.21 71.20 23.72Q71.73 24.23 72.29 24.44Q72.85 24.65 73.59 24.65L73.59 24.65L73.59 25L70.65 25Q68.75 25 67.44 24.72Q66.13 24.44 65.19 23.69Q64.24 22.93 63.40 21.64L63.40 21.64Q63.09 21.18 62.73 20.54Q62.39 19.89 62.04 19.23Q61.69 18.56 61.42 17.93Q61.16 17.30 61.05 16.88L61.05 16.88Q60.60 15.76 60.02 15.25Q59.45 14.74 58.95 14.74L58.95 14.74L58.95 14.43Q58.95 14.43 59.20 14.43Q59.45 14.43 59.83 14.43L59.83 14.43Q60.56 14.43 61.28 14.17Q62 13.90 62.59 13.15Q63.19 12.40 63.47 10.93L63.47 10.93Q63.54 10.72 63.59 10.33Q63.65 9.95 63.61 9.46L63.61 9.46Q63.54 8.16 63.14 7.39Q62.73 6.63 62.14 6.20Q61.55 5.78 60.93 5.63Q60.32 5.47 59.87 5.47L59.87 5.47Q59.20 5.43 58.66 5.45Q58.12 5.47 57.84 5.43L57.84 5.43Q57.80 5.43 57.73 5.07Q57.66 4.70 57.59 4.35Q57.52 4.00 57.52 4.00ZM52.80 4.00L57.87 4.00L57.87 25L52.80 25L52.80 4.00ZM52.83 22.80L52.90 22.80L53.04 25L50.52 25L50.52 24.65Q50.55 24.65 50.71 24.65Q50.87 24.65 50.94 24.65L50.94 24.65Q51.71 24.65 52.25 24.11Q52.80 23.57 52.83 22.80L52.83 22.80ZM53.04 4.00L52.90 6.17L52.83 6.17Q52.80 5.36 52.25 4.86Q51.71 4.35 50.98 4.35L50.98 4.35Q50.87 4.35 50.71 4.35Q50.55 4.35 50.52 4.35L50.52 4.35L50.52 4.00L53.04 4.00ZM57.63 25L57.80 22.80L57.87 22.80Q57.87 23.67 58.48 24.16Q59.09 24.65 59.76 24.65L59.76 24.65Q59.76 24.65 59.92 24.65Q60.08 24.65 60.15 24.65L60.15 24.65L60.15 25L57.63 25ZM75.13 4.00L80.17 4.00L80.17 25L75.13 25L75.13 4.00ZM80.09 23.60L88.36 23.60L89.16 25L80.09 25L80.09 23.60ZM80.09 13.90L87.17 13.90L87.17 15.30L80.09 15.30L80.09 13.90ZM80.09 4.00L88.74 4.00L88.74 5.40L80.09 5.40L80.09 4.00ZM90.28 18.56L90.59 18.56L89.27 25L83.21 25L84.30 23.60Q85.80 23.60 86.97 22.99Q88.15 22.38 88.99 21.24Q89.83 20.10 90.28 18.56L90.28 18.56ZM84.16 15.23L87.17 15.23L87.17 18.31L86.81 18.31L86.81 18.04Q86.81 16.88 86.10 16.09Q85.38 15.30 84.16 15.30L84.16 15.30L84.16 15.23ZM86.81 10.89L87.17 10.89L87.17 13.97L84.16 13.97L84.16 13.90Q85.38 13.87 86.10 13.08Q86.81 12.29 86.81 11.14L86.81 11.14L86.81 10.89ZM85.21 5.33L88.74 5.33L88.74 9.04L88.39 9.04L88.39 8.72Q88.39 7.18 87.57 6.31Q86.75 5.43 85.21 5.40L85.21 5.40L85.21 5.33ZM88.74 3.47L88.74 3.47L88.74 4.31L85.06 4.00Q86.08 4.00 87.20 3.81Q88.32 3.61 88.74 3.47ZM75.13 22.80L75.23 22.80L75.37 25L72.78 25L72.78 24.65Q72.78 24.65 72.99 24.65Q73.20 24.65 73.23 24.65L73.23 24.65Q74.01 24.65 74.56 24.11Q75.13 23.57 75.13 22.80L75.13 22.80ZM75.37 4.00L75.23 6.20L75.13 6.20Q75.13 5.40 74.56 4.87Q74.01 4.35 73.23 4.35L73.23 4.35Q73.20 4.35 72.99 4.35Q72.78 4.35 72.78 4.35L72.78 4.35L72.78 4.00L75.37 4.00ZM94.20 4.00L99.24 4.00L99.24 25L94.20 25L94.20 4.00ZM99.17 23.60L107.43 23.60L108.24 25L99.17 25L99.17 23.60ZM99.17 13.90L106.24 13.90L106.24 15.30L99.17 15.30L99.17 13.90ZM99.17 4.00L107.82 4.00L107.82 5.40L99.17 5.40L99.17 4.00ZM109.36 18.56L109.67 18.56L108.34 25L102.29 25L103.37 23.60Q104.88 23.60 106.05 22.99Q107.22 22.38 108.06 21.24Q108.90 20.10 109.36 18.56L109.36 18.56ZM103.23 15.23L106.24 15.23L106.24 18.31L105.89 18.31L105.89 18.04Q105.89 16.88 105.17 16.09Q104.46 15.30 103.23 15.30L103.23 15.30L103.23 15.23ZM105.89 10.89L106.24 10.89L106.24 13.97L103.23 13.97L103.23 13.90Q104.46 13.87 105.17 13.08Q105.89 12.29 105.89 11.14L105.89 11.14L105.89 10.89ZM104.28 5.33L107.82 5.33L107.82 9.04L107.47 9.04L107.47 8.72Q107.47 7.18 106.64 6.31Q105.82 5.43 104.28 5.40L104.28 5.40L104.28 5.33ZM107.82 3.47L107.82 3.47L107.82 4.31L104.14 4.00Q105.16 4.00 106.28 3.81Q107.40 3.61 107.82 3.47ZM94.20 22.80L94.31 22.80L94.45 25L91.86 25L91.86 24.65Q91.86 24.65 92.07 24.65Q92.28 24.65 92.31 24.65L92.31 24.65Q93.08 24.65 93.64 24.11Q94.20 23.57 94.20 22.80L94.20 22.80ZM94.45 4.00L94.31 6.20L94.20 6.20Q94.20 5.40 93.64 4.87Q93.08 4.35 92.31 4.35L92.31 4.35Q92.28 4.35 92.07 4.35Q91.86 4.35 91.86 4.35L91.86 4.35L91.86 4.00L94.45 4.00ZM113.45 7.39L113.06 3.51L133.61 21.57L133.96 25.45L113.45 7.39ZM113.10 22.86L113.20 22.86L113.20 25L110.61 25L110.61 24.65Q110.61 24.65 110.89 24.65Q111.17 24.65 111.17 24.65L111.17 24.65Q111.98 24.65 112.54 24.14Q113.10 23.63 113.10 22.86L113.10 22.86ZM117.83 22.86L117.89 22.86Q117.93 23.63 118.49 24.14Q119.05 24.65 119.82 24.65L119.82 24.65Q119.82 24.65 120.10 24.65Q120.38 24.65 120.38 24.65L120.38 24.65L120.38 25L117.83 25L117.83 22.86ZM112.75 3.51L113.06 3.51L117.89 8.76L117.89 25L113.10 25L113.10 7.50Q113.10 5.71 112.92 4.61Q112.75 3.51 112.75 3.51L112.75 3.51ZM129.13 4.00L133.93 4.00L133.93 21.36Q133.93 22.59 134.01 23.51Q134.10 24.44 134.19 24.95Q134.28 25.45 134.28 25.45L134.28 25.45L133.96 25.45L129.13 19.89L129.13 4.00ZM133.93 6.13L133.82 6.13L133.82 4.00L136.44 4.00L136.44 4.35Q136.44 4.35 136.15 4.35Q135.85 4.35 135.85 4.35L135.85 4.35Q135.08 4.35 134.50 4.86Q133.93 5.36 133.93 6.13L133.93 6.13ZM129.20 6.13L129.13 6.13Q129.09 5.36 128.55 4.86Q128.01 4.35 127.20 4.35L127.20 4.35Q127.20 4.35 126.91 4.35Q126.61 4.35 126.61 4.35L126.61 4.35L126.61 4.00L129.20 4.00L129.20 6.13ZM140.16 4.00L145.19 4.00L145.19 25L140.16 25L140.16 4.00ZM145.13 23.60L153.35 23.60L154.19 25L145.13 25L145.13 23.60ZM155.31 18.56L155.66 18.56L154.30 25L148.24 25L149.33 23.60Q150.83 23.60 152.00 22.99Q153.18 22.38 154.02 21.24Q154.86 20.10 155.31 18.56L155.31 18.56ZM140.16 22.80L140.26 22.80L140.40 25L137.81 25L137.81 24.65Q137.81 24.65 138.02 24.65Q138.23 24.65 138.27 24.65L138.27 24.65Q139.03 24.65 139.59 24.11Q140.16 23.57 140.16 22.80L140.16 22.80ZM145.19 6.20L145.13 6.20L145.13 4.00L147.54 4.00L147.54 4.35Q147.50 4.35 147.31 4.35Q147.12 4.35 147.12 4.35L147.12 4.35Q146.35 4.35 145.79 4.87Q145.23 5.40 145.19 6.20L145.19 6.20ZM140.26 4.00L140.26 6.20L140.16 6.20Q140.16 5.40 139.58 4.87Q139 4.35 138.23 4.35L138.23 4.35Q138.19 4.35 138.00 4.35Q137.81 4.35 137.81 4.35L137.81 4.35L137.81 4.00L140.26 4.00ZM153.56 4.03L159.30 4.03L165.88 15.41L161.22 15.93L153.56 4.03ZM161.05 15.55L166.09 15.48L166.09 25L161.05 25L161.05 15.55ZM164.09 15.86L171.06 4.03L173.62 4.03L165.74 16.18L164.09 15.86ZM172.32 6.06L169.80 6.17Q170.19 5.50 169.80 4.93Q169.41 4.35 168.75 4.35L168.75 4.35Q168.75 4.35 168.54 4.35Q168.33 4.35 168.33 4.35L168.33 4.35L168.33 4.00L175.85 4.00L175.85 4.35L175.40 4.35Q174.45 4.35 173.63 4.86Q172.81 5.36 172.32 6.06L172.32 6.06ZM160.53 6.17L160.53 6.17L154.85 6.06Q154.37 5.33 153.56 4.84Q152.75 4.35 151.78 4.35L151.78 4.35L151.35 4.35L151.35 4.00L162.00 4.00L162.00 4.35Q162.00 4.35 161.80 4.35Q161.61 4.35 161.61 4.35L161.61 4.35Q160.91 4.35 160.54 4.94Q160.18 5.54 160.53 6.17ZM161.05 22.80L161.16 22.80L161.16 25L158.67 25L158.67 24.65Q158.70 24.65 158.90 24.65Q159.09 24.65 159.09 24.65L159.09 24.65Q159.90 24.65 160.45 24.11Q161.01 23.57 161.05 22.80L161.05 22.80ZM166.02 25L166.02 22.80L166.09 22.80Q166.13 23.57 166.70 24.11Q167.28 24.65 168.05 24.65L168.05 24.65Q168.05 24.65 168.26 24.65Q168.47 24.65 168.47 24.65L168.47 24.65L168.47 25L166.02 25Z" fill="#6300C7"></path></g>
        
      </svg>