
      <svg data-logo="logo" xmlns="http://www.w3.org/2000/svg" viewBox="0 0 67 41">
        <g id="logogram" transform="translate(0, 0) rotate(0) "><path d="M0.290833 20.9C0.290833 9.85432 9.24513 0.900024 20.2908 0.900024H46.5408C57.5866 0.900024 66.5408 9.85432 66.5408 20.9V40.9H20.2908C9.24513 40.9 0.290833 31.9458 0.290833 20.9Z" fill="#6300C7"/><path d="M46.5408 8.40002H20.2908C13.3873 8.40002 7.79083 13.9965 7.79083 20.9C7.79083 27.8036 13.3873 33.4 20.2908 33.4H46.5408C53.4444 33.4 59.0408 27.8036 59.0408 20.9C59.0408 13.9965 53.4444 8.40002 46.5408 8.40002Z" fill="#A5B4FC"/><path d="M20.2908 27.15C23.7426 27.15 26.5408 24.3518 26.5408 20.9C26.5408 17.4482 23.7426 14.65 20.2908 14.65C16.8391 14.65 14.0408 17.4482 14.0408 20.9C14.0408 24.3518 16.8391 27.15 20.2908 27.15Z" fill="black"/><path d="M17.7908 19.65C18.4812 19.65 19.0408 19.0904 19.0408 18.4C19.0408 17.7097 18.4812 17.15 17.7908 17.15C17.1005 17.15 16.5408 17.7097 16.5408 18.4C16.5408 19.0904 17.1005 19.65 17.7908 19.65Z" fill="white"/><path d="M47.7908 27.15C51.2426 27.15 54.0408 24.3518 54.0408 20.9C54.0408 17.4482 51.2426 14.65 47.7908 14.65C44.3391 14.65 41.5408 17.4482 41.5408 20.9C41.5408 24.3518 44.3391 27.15 47.7908 27.15Z" fill="black"/><path d="M45.2908 19.65C45.9812 19.65 46.5408 19.0904 46.5408 18.4C46.5408 17.7097 45.9812 17.15 45.2908 17.15C44.6005 17.15 44.0408 17.7097 44.0408 18.4C44.0408 19.0904 44.6005 19.65 45.2908 19.65Z" fill="white"/></g>
        <g id="logotype" transform="translate(67, 20.5)"></g>
        
      </svg>
    